<svg width="200" height="200" viewBox="0 0 200 200" fill="none" xmlns="http://www.w3.org/2000/svg">
<path d="M200 160C200 182.091 182.091 200 160 200L40 200C17.9086 200 1.68244e-05 182.091 1.87557e-05 160L2.92464e-05 40C3.11777e-05 17.9086 17.9086 -6.60144e-07 40 1.27115e-06L160 1.17619e-05C182.091 1.36932e-05 200 17.9086 200 40L200 160Z" fill="white"/>
<path fill-rule="evenodd" clip-rule="evenodd" d="M84.0005 124C106.092 124 124 106.091 124 84C124 61.9086 106.092 44 84.0005 44C61.9091 44 44.0005 61.9086 44.0005 84C44.0005 106.091 61.9091 124 84.0005 124ZM84.0005 144C117.138 144 144 117.137 144 84C144 50.8629 117.138 24 84.0005 24C50.8634 24 24.0005 50.8629 24.0005 84C24.0005 117.137 50.8634 144 84.0005 144Z" fill="#4838D1"/>
<path d="M172 152C172 163.046 163.046 172 152 172C140.954 172 132 163.046 132 152C132 140.955 140.954 132 152 132C163.046 132 172 140.955 172 152Z" fill="#F77A55"/>
</svg>
